<mxfile host="app.diagrams.net" agent="Mozilla/5.0 (Windows NT 10.0; Win64; x64) AppleWebKit/537.36 (KHTML, like Gecko) Chrome/134.0.0.0 Safari/537.36" version="26.1.1">
  <diagram name="‫עמוד-1‬" id="nKQnL43cx3zo4XW1zEdk">
    <mxGraphModel dx="1400" dy="760" grid="1" gridSize="10" guides="1" tooltips="1" connect="1" arrows="1" fold="1" page="1" pageScale="1" pageWidth="827" pageHeight="1169" math="0" shadow="0">
      <root>
        <mxCell id="0" />
        <mxCell id="1" parent="0" />
        <mxCell id="S0s6AWKBej9ATl0rAqp6-1" value="FireStore&lt;div&gt;DataBase&lt;/div&gt;" style="whiteSpace=wrap;html=1;aspect=fixed;fillColor=#dae8fc;strokeColor=#6c8ebf;" vertex="1" parent="1">
          <mxGeometry y="150" width="160" height="160" as="geometry" />
        </mxCell>
        <mxCell id="S0s6AWKBej9ATl0rAqp6-2" value="&lt;b&gt;&lt;font style=&quot;font-size: 13px;&quot;&gt;&lt;u&gt;Database&lt;/u&gt;&lt;/font&gt;&lt;/b&gt;" style="text;strokeColor=none;align=center;fillColor=none;html=1;verticalAlign=middle;whiteSpace=wrap;rounded=0;" vertex="1" parent="1">
          <mxGeometry x="40" y="90" width="60" height="30" as="geometry" />
        </mxCell>
        <mxCell id="S0s6AWKBej9ATl0rAqp6-4" value="" style="edgeStyle=elbowEdgeStyle;elbow=horizontal;endArrow=classic;html=1;curved=0;rounded=0;endSize=8;startSize=8;exitX=1.012;exitY=0.358;exitDx=0;exitDy=0;exitPerimeter=0;entryX=0;entryY=0.5;entryDx=0;entryDy=0;" edge="1" parent="1" source="S0s6AWKBej9ATl0rAqp6-1" target="S0s6AWKBej9ATl0rAqp6-5">
          <mxGeometry width="50" height="50" relative="1" as="geometry">
            <mxPoint x="170" y="210" as="sourcePoint" />
            <mxPoint x="290" y="150" as="targetPoint" />
            <Array as="points">
              <mxPoint x="240" y="230" />
            </Array>
          </mxGeometry>
        </mxCell>
        <mxCell id="S0s6AWKBej9ATl0rAqp6-5" value="Orders" style="rounded=1;whiteSpace=wrap;html=1;fillColor=#f8cecc;strokeColor=#b85450;" vertex="1" parent="1">
          <mxGeometry x="280" y="220" width="120" height="60" as="geometry" />
        </mxCell>
        <mxCell id="S0s6AWKBej9ATl0rAqp6-6" value="Shipment" style="rounded=1;whiteSpace=wrap;html=1;fillColor=#f8cecc;strokeColor=#b85450;" vertex="1" parent="1">
          <mxGeometry x="290" y="648" width="120" height="60" as="geometry" />
        </mxCell>
        <mxCell id="S0s6AWKBej9ATl0rAqp6-7" value="Users" style="rounded=1;whiteSpace=wrap;html=1;fillColor=#f8cecc;strokeColor=#b85450;" vertex="1" parent="1">
          <mxGeometry x="290" y="930" width="120" height="60" as="geometry" />
        </mxCell>
        <mxCell id="S0s6AWKBej9ATl0rAqp6-8" value="" style="edgeStyle=elbowEdgeStyle;elbow=horizontal;endArrow=classic;html=1;curved=0;rounded=0;endSize=8;startSize=8;entryX=0;entryY=0.25;entryDx=0;entryDy=0;" edge="1" parent="1" target="S0s6AWKBej9ATl0rAqp6-6">
          <mxGeometry width="50" height="50" relative="1" as="geometry">
            <mxPoint x="160" y="240" as="sourcePoint" />
            <mxPoint x="280" y="225" as="targetPoint" />
            <Array as="points">
              <mxPoint x="230" y="230" />
            </Array>
          </mxGeometry>
        </mxCell>
        <mxCell id="S0s6AWKBej9ATl0rAqp6-9" value="" style="edgeStyle=elbowEdgeStyle;elbow=horizontal;endArrow=classic;html=1;curved=0;rounded=0;endSize=8;startSize=8;entryX=0;entryY=0.25;entryDx=0;entryDy=0;" edge="1" parent="1" target="S0s6AWKBej9ATl0rAqp6-7">
          <mxGeometry width="50" height="50" relative="1" as="geometry">
            <mxPoint x="160" y="270" as="sourcePoint" />
            <mxPoint x="280" y="340" as="targetPoint" />
            <Array as="points">
              <mxPoint x="210" y="380" />
            </Array>
          </mxGeometry>
        </mxCell>
        <mxCell id="S0s6AWKBej9ATl0rAqp6-10" value="order 1" style="rounded=1;whiteSpace=wrap;html=1;fillColor=#e1d5e7;strokeColor=#9673a6;" vertex="1" parent="1">
          <mxGeometry x="420" y="140" width="110" height="30" as="geometry" />
        </mxCell>
        <mxCell id="S0s6AWKBej9ATl0rAqp6-11" value="order 2" style="rounded=1;whiteSpace=wrap;html=1;fillColor=#e1d5e7;strokeColor=#9673a6;" vertex="1" parent="1">
          <mxGeometry x="420" y="200" width="110" height="30" as="geometry" />
        </mxCell>
        <mxCell id="S0s6AWKBej9ATl0rAqp6-14" value="" style="endArrow=none;dashed=1;html=1;dashPattern=1 3;strokeWidth=2;rounded=0;" edge="1" parent="1">
          <mxGeometry width="50" height="50" relative="1" as="geometry">
            <mxPoint x="480" y="290" as="sourcePoint" />
            <mxPoint x="480" y="240" as="targetPoint" />
          </mxGeometry>
        </mxCell>
        <mxCell id="S0s6AWKBej9ATl0rAqp6-15" value="order n" style="rounded=1;whiteSpace=wrap;html=1;fillColor=#e1d5e7;strokeColor=#9673a6;" vertex="1" parent="1">
          <mxGeometry x="420" y="310" width="110" height="30" as="geometry" />
        </mxCell>
        <mxCell id="S0s6AWKBej9ATl0rAqp6-16" value="order 1" style="rounded=1;whiteSpace=wrap;html=1;fillColor=#e1d5e7;strokeColor=#9673a6;" vertex="1" parent="1">
          <mxGeometry x="420" y="552.5" width="110" height="30" as="geometry" />
        </mxCell>
        <mxCell id="S0s6AWKBej9ATl0rAqp6-17" value="order 2" style="rounded=1;whiteSpace=wrap;html=1;fillColor=#e1d5e7;strokeColor=#9673a6;" vertex="1" parent="1">
          <mxGeometry x="420" y="612.5" width="110" height="30" as="geometry" />
        </mxCell>
        <mxCell id="S0s6AWKBej9ATl0rAqp6-18" value="" style="endArrow=none;dashed=1;html=1;dashPattern=1 3;strokeWidth=2;rounded=0;" edge="1" parent="1">
          <mxGeometry width="50" height="50" relative="1" as="geometry">
            <mxPoint x="480" y="702.5" as="sourcePoint" />
            <mxPoint x="480" y="652.5" as="targetPoint" />
          </mxGeometry>
        </mxCell>
        <mxCell id="S0s6AWKBej9ATl0rAqp6-19" value="order n" style="rounded=1;whiteSpace=wrap;html=1;fillColor=#e1d5e7;strokeColor=#9673a6;" vertex="1" parent="1">
          <mxGeometry x="420" y="722.5" width="110" height="30" as="geometry" />
        </mxCell>
        <mxCell id="S0s6AWKBej9ATl0rAqp6-20" value="order 1" style="rounded=1;whiteSpace=wrap;html=1;fillColor=#e1d5e7;strokeColor=#9673a6;" vertex="1" parent="1">
          <mxGeometry x="440" y="840" width="110" height="30" as="geometry" />
        </mxCell>
        <mxCell id="S0s6AWKBej9ATl0rAqp6-21" value="order 2" style="rounded=1;whiteSpace=wrap;html=1;fillColor=#e1d5e7;strokeColor=#9673a6;" vertex="1" parent="1">
          <mxGeometry x="440" y="900" width="110" height="30" as="geometry" />
        </mxCell>
        <mxCell id="S0s6AWKBej9ATl0rAqp6-22" value="" style="endArrow=none;dashed=1;html=1;dashPattern=1 3;strokeWidth=2;rounded=0;" edge="1" parent="1">
          <mxGeometry width="50" height="50" relative="1" as="geometry">
            <mxPoint x="500" y="990" as="sourcePoint" />
            <mxPoint x="500" y="940" as="targetPoint" />
          </mxGeometry>
        </mxCell>
        <mxCell id="S0s6AWKBej9ATl0rAqp6-23" value="order n" style="rounded=1;whiteSpace=wrap;html=1;fillColor=#e1d5e7;strokeColor=#9673a6;" vertex="1" parent="1">
          <mxGeometry x="440" y="1010" width="110" height="30" as="geometry" />
        </mxCell>
        <mxCell id="S0s6AWKBej9ATl0rAqp6-24" value="comboKey" style="rounded=1;whiteSpace=wrap;html=1;fillColor=#60a917;fontColor=#ffffff;strokeColor=#2D7600;" vertex="1" parent="1">
          <mxGeometry x="610" y="60" width="130" height="20" as="geometry" />
        </mxCell>
        <mxCell id="S0s6AWKBej9ATl0rAqp6-25" value="dateOfDeparture" style="rounded=1;whiteSpace=wrap;html=1;fillColor=#60a917;fontColor=#ffffff;strokeColor=#2D7600;" vertex="1" parent="1">
          <mxGeometry x="610" y="90" width="130" height="20" as="geometry" />
        </mxCell>
        <mxCell id="S0s6AWKBej9ATl0rAqp6-26" value="dateOfReceipt" style="rounded=1;whiteSpace=wrap;html=1;fillColor=#60a917;fontColor=#ffffff;strokeColor=#2D7600;" vertex="1" parent="1">
          <mxGeometry x="610" y="120" width="130" height="20" as="geometry" />
        </mxCell>
        <mxCell id="S0s6AWKBej9ATl0rAqp6-27" value="Destination" style="rounded=1;whiteSpace=wrap;html=1;fillColor=#60a917;fontColor=#ffffff;strokeColor=#2D7600;" vertex="1" parent="1">
          <mxGeometry x="610" y="150" width="130" height="20" as="geometry" />
        </mxCell>
        <mxCell id="S0s6AWKBej9ATl0rAqp6-28" value="finalArrivalDate" style="rounded=1;whiteSpace=wrap;html=1;fillColor=#60a917;fontColor=#ffffff;strokeColor=#2D7600;" vertex="1" parent="1">
          <mxGeometry x="610" y="180" width="130" height="20" as="geometry" />
        </mxCell>
        <mxCell id="S0s6AWKBej9ATl0rAqp6-29" value="ItemDescription" style="rounded=1;whiteSpace=wrap;html=1;fillColor=#60a917;fontColor=#ffffff;strokeColor=#2D7600;" vertex="1" parent="1">
          <mxGeometry x="610" y="210" width="130" height="20" as="geometry" />
        </mxCell>
        <mxCell id="S0s6AWKBej9ATl0rAqp6-30" value="ItemNum" style="rounded=1;whiteSpace=wrap;html=1;fillColor=#60a917;fontColor=#ffffff;strokeColor=#2D7600;" vertex="1" parent="1">
          <mxGeometry x="610" y="240" width="130" height="20" as="geometry" />
        </mxCell>
        <mxCell id="S0s6AWKBej9ATl0rAqp6-31" value="orderDate" style="rounded=1;whiteSpace=wrap;html=1;fillColor=#60a917;fontColor=#ffffff;strokeColor=#2D7600;" vertex="1" parent="1">
          <mxGeometry x="610" y="270" width="130" height="20" as="geometry" />
        </mxCell>
        <mxCell id="S0s6AWKBej9ATl0rAqp6-32" value="OrderId" style="rounded=1;whiteSpace=wrap;html=1;fillColor=#60a917;fontColor=#ffffff;strokeColor=#2D7600;" vertex="1" parent="1">
          <mxGeometry x="610" y="300" width="130" height="20" as="geometry" />
        </mxCell>
        <mxCell id="S0s6AWKBej9ATl0rAqp6-33" value="OrderName" style="rounded=1;whiteSpace=wrap;html=1;fillColor=#60a917;fontColor=#ffffff;strokeColor=#2D7600;" vertex="1" parent="1">
          <mxGeometry x="610" y="330" width="130" height="20" as="geometry" />
        </mxCell>
        <mxCell id="S0s6AWKBej9ATl0rAqp6-34" value="ShipmentId" style="rounded=1;whiteSpace=wrap;html=1;fillColor=#60a917;fontColor=#ffffff;strokeColor=#2D7600;" vertex="1" parent="1">
          <mxGeometry x="610" y="360" width="130" height="20" as="geometry" />
        </mxCell>
        <mxCell id="S0s6AWKBej9ATl0rAqp6-35" value="Source" style="rounded=1;whiteSpace=wrap;html=1;fillColor=#60a917;fontColor=#ffffff;strokeColor=#2D7600;" vertex="1" parent="1">
          <mxGeometry x="610" y="390" width="130" height="20" as="geometry" />
        </mxCell>
        <mxCell id="S0s6AWKBej9ATl0rAqp6-36" value="StatusOfOrder" style="rounded=1;whiteSpace=wrap;html=1;fillColor=#60a917;fontColor=#ffffff;strokeColor=#2D7600;" vertex="1" parent="1">
          <mxGeometry x="610" y="425" width="130" height="20" as="geometry" />
        </mxCell>
        <mxCell id="S0s6AWKBej9ATl0rAqp6-37" value="clock" style="rounded=1;whiteSpace=wrap;html=1;fillColor=#6a00ff;fontColor=#ffffff;strokeColor=#3700CC;" vertex="1" parent="1">
          <mxGeometry x="610" y="532.5" width="130" height="20" as="geometry" />
        </mxCell>
        <mxCell id="S0s6AWKBej9ATl0rAqp6-38" value="OrderId" style="rounded=1;whiteSpace=wrap;html=1;fillColor=#6a00ff;fontColor=#ffffff;strokeColor=#3700CC;" vertex="1" parent="1">
          <mxGeometry x="610" y="562.5" width="130" height="20" as="geometry" />
        </mxCell>
        <mxCell id="S0s6AWKBej9ATl0rAqp6-39" value="departureDate" style="rounded=1;whiteSpace=wrap;html=1;fillColor=#6a00ff;fontColor=#ffffff;strokeColor=#3700CC;" vertex="1" parent="1">
          <mxGeometry x="610" y="592.5" width="130" height="20" as="geometry" />
        </mxCell>
        <mxCell id="S0s6AWKBej9ATl0rAqp6-40" value="finalArrivalDate" style="rounded=1;whiteSpace=wrap;html=1;fillColor=#6a00ff;fontColor=#ffffff;strokeColor=#3700CC;" vertex="1" parent="1">
          <mxGeometry x="610" y="622.5" width="130" height="20" as="geometry" />
        </mxCell>
        <mxCell id="S0s6AWKBej9ATl0rAqp6-41" value="ShipmentId" style="rounded=1;whiteSpace=wrap;html=1;fillColor=#6a00ff;fontColor=#ffffff;strokeColor=#3700CC;" vertex="1" parent="1">
          <mxGeometry x="610" y="652.5" width="130" height="20" as="geometry" />
        </mxCell>
        <mxCell id="S0s6AWKBej9ATl0rAqp6-42" value="StatusofShipment" style="rounded=1;whiteSpace=wrap;html=1;fillColor=#6a00ff;fontColor=#ffffff;strokeColor=#3700CC;" vertex="1" parent="1">
          <mxGeometry x="610" y="687.5" width="130" height="20" as="geometry" />
        </mxCell>
        <mxCell id="S0s6AWKBej9ATl0rAqp6-43" value="Email" style="rounded=1;whiteSpace=wrap;html=1;fillColor=#d80073;fontColor=#ffffff;strokeColor=#A50040;" vertex="1" parent="1">
          <mxGeometry x="610" y="890" width="130" height="20" as="geometry" />
        </mxCell>
        <mxCell id="S0s6AWKBej9ATl0rAqp6-44" value="Password" style="rounded=1;whiteSpace=wrap;html=1;fillColor=#d80073;fontColor=#ffffff;strokeColor=#A50040;" vertex="1" parent="1">
          <mxGeometry x="610" y="925" width="130" height="20" as="geometry" />
        </mxCell>
        <mxCell id="S0s6AWKBej9ATl0rAqp6-47" value="" style="edgeStyle=elbowEdgeStyle;elbow=horizontal;endArrow=classic;html=1;curved=0;rounded=0;endSize=8;startSize=8;" edge="1" parent="1">
          <mxGeometry width="50" height="50" relative="1" as="geometry">
            <mxPoint x="560" y="590" as="sourcePoint" />
            <mxPoint x="610" y="540" as="targetPoint" />
          </mxGeometry>
        </mxCell>
        <mxCell id="S0s6AWKBej9ATl0rAqp6-48" value="" style="edgeStyle=elbowEdgeStyle;elbow=horizontal;endArrow=classic;html=1;curved=0;rounded=0;endSize=8;startSize=8;" edge="1" parent="1">
          <mxGeometry width="50" height="50" relative="1" as="geometry">
            <mxPoint x="560" y="620" as="sourcePoint" />
            <mxPoint x="610" y="570" as="targetPoint" />
          </mxGeometry>
        </mxCell>
        <mxCell id="S0s6AWKBej9ATl0rAqp6-49" value="" style="edgeStyle=elbowEdgeStyle;elbow=horizontal;endArrow=classic;html=1;curved=0;rounded=0;endSize=8;startSize=8;" edge="1" parent="1">
          <mxGeometry width="50" height="50" relative="1" as="geometry">
            <mxPoint x="560" y="650" as="sourcePoint" />
            <mxPoint x="610" y="600" as="targetPoint" />
          </mxGeometry>
        </mxCell>
        <mxCell id="S0s6AWKBej9ATl0rAqp6-50" value="" style="edgeStyle=elbowEdgeStyle;elbow=horizontal;endArrow=classic;html=1;curved=0;rounded=0;endSize=8;startSize=8;" edge="1" parent="1">
          <mxGeometry width="50" height="50" relative="1" as="geometry">
            <mxPoint x="560" y="687.5" as="sourcePoint" />
            <mxPoint x="610" y="637.5" as="targetPoint" />
          </mxGeometry>
        </mxCell>
        <mxCell id="S0s6AWKBej9ATl0rAqp6-51" value="" style="edgeStyle=elbowEdgeStyle;elbow=horizontal;endArrow=classic;html=1;curved=0;rounded=0;endSize=8;startSize=8;" edge="1" parent="1">
          <mxGeometry width="50" height="50" relative="1" as="geometry">
            <mxPoint x="560" y="710" as="sourcePoint" />
            <mxPoint x="610" y="660" as="targetPoint" />
          </mxGeometry>
        </mxCell>
        <mxCell id="S0s6AWKBej9ATl0rAqp6-52" value="" style="edgeStyle=elbowEdgeStyle;elbow=horizontal;endArrow=classic;html=1;curved=0;rounded=0;endSize=8;startSize=8;" edge="1" parent="1">
          <mxGeometry width="50" height="50" relative="1" as="geometry">
            <mxPoint x="560" y="750" as="sourcePoint" />
            <mxPoint x="610" y="700" as="targetPoint" />
          </mxGeometry>
        </mxCell>
        <mxCell id="S0s6AWKBej9ATl0rAqp6-53" value="" style="line;strokeWidth=2;direction=south;html=1;" vertex="1" parent="1">
          <mxGeometry x="550" y="590" width="20" height="160" as="geometry" />
        </mxCell>
        <mxCell id="S0s6AWKBej9ATl0rAqp6-54" value="" style="line;strokeWidth=2;html=1;" vertex="1" parent="1">
          <mxGeometry x="490" y="673" width="70" height="10" as="geometry" />
        </mxCell>
        <mxCell id="S0s6AWKBej9ATl0rAqp6-55" value="" style="edgeStyle=elbowEdgeStyle;elbow=horizontal;endArrow=classic;html=1;curved=0;rounded=0;endSize=8;startSize=8;" edge="1" parent="1">
          <mxGeometry width="50" height="50" relative="1" as="geometry">
            <mxPoint x="560" y="120" as="sourcePoint" />
            <mxPoint x="610" y="70" as="targetPoint" />
          </mxGeometry>
        </mxCell>
        <mxCell id="S0s6AWKBej9ATl0rAqp6-56" value="" style="edgeStyle=elbowEdgeStyle;elbow=horizontal;endArrow=classic;html=1;curved=0;rounded=0;endSize=8;startSize=8;" edge="1" parent="1">
          <mxGeometry width="50" height="50" relative="1" as="geometry">
            <mxPoint x="560" y="150" as="sourcePoint" />
            <mxPoint x="610" y="100" as="targetPoint" />
          </mxGeometry>
        </mxCell>
        <mxCell id="S0s6AWKBej9ATl0rAqp6-57" value="" style="edgeStyle=elbowEdgeStyle;elbow=horizontal;endArrow=classic;html=1;curved=0;rounded=0;endSize=8;startSize=8;" edge="1" parent="1">
          <mxGeometry width="50" height="50" relative="1" as="geometry">
            <mxPoint x="560" y="180" as="sourcePoint" />
            <mxPoint x="610" y="130" as="targetPoint" />
          </mxGeometry>
        </mxCell>
        <mxCell id="S0s6AWKBej9ATl0rAqp6-58" value="" style="edgeStyle=elbowEdgeStyle;elbow=horizontal;endArrow=classic;html=1;curved=0;rounded=0;endSize=8;startSize=8;" edge="1" parent="1">
          <mxGeometry width="50" height="50" relative="1" as="geometry">
            <mxPoint x="560" y="215" as="sourcePoint" />
            <mxPoint x="610" y="165" as="targetPoint" />
          </mxGeometry>
        </mxCell>
        <mxCell id="S0s6AWKBej9ATl0rAqp6-59" value="" style="edgeStyle=elbowEdgeStyle;elbow=horizontal;endArrow=classic;html=1;curved=0;rounded=0;endSize=8;startSize=8;" edge="1" parent="1">
          <mxGeometry width="50" height="50" relative="1" as="geometry">
            <mxPoint x="560" y="240" as="sourcePoint" />
            <mxPoint x="610" y="190" as="targetPoint" />
          </mxGeometry>
        </mxCell>
        <mxCell id="S0s6AWKBej9ATl0rAqp6-60" value="" style="edgeStyle=elbowEdgeStyle;elbow=horizontal;endArrow=classic;html=1;curved=0;rounded=0;endSize=8;startSize=8;" edge="1" parent="1">
          <mxGeometry width="50" height="50" relative="1" as="geometry">
            <mxPoint x="560" y="270" as="sourcePoint" />
            <mxPoint x="610" y="220" as="targetPoint" />
          </mxGeometry>
        </mxCell>
        <mxCell id="S0s6AWKBej9ATl0rAqp6-61" value="" style="edgeStyle=elbowEdgeStyle;elbow=horizontal;endArrow=classic;html=1;curved=0;rounded=0;endSize=8;startSize=8;" edge="1" parent="1">
          <mxGeometry width="50" height="50" relative="1" as="geometry">
            <mxPoint x="560" y="300" as="sourcePoint" />
            <mxPoint x="610" y="250" as="targetPoint" />
          </mxGeometry>
        </mxCell>
        <mxCell id="S0s6AWKBej9ATl0rAqp6-62" value="" style="edgeStyle=elbowEdgeStyle;elbow=horizontal;endArrow=classic;html=1;curved=0;rounded=0;endSize=8;startSize=8;" edge="1" parent="1">
          <mxGeometry width="50" height="50" relative="1" as="geometry">
            <mxPoint x="560" y="335" as="sourcePoint" />
            <mxPoint x="610" y="285" as="targetPoint" />
          </mxGeometry>
        </mxCell>
        <mxCell id="S0s6AWKBej9ATl0rAqp6-63" value="" style="edgeStyle=elbowEdgeStyle;elbow=horizontal;endArrow=classic;html=1;curved=0;rounded=0;endSize=8;startSize=8;" edge="1" parent="1">
          <mxGeometry width="50" height="50" relative="1" as="geometry">
            <mxPoint x="560" y="360" as="sourcePoint" />
            <mxPoint x="610" y="310" as="targetPoint" />
          </mxGeometry>
        </mxCell>
        <mxCell id="S0s6AWKBej9ATl0rAqp6-64" value="" style="edgeStyle=elbowEdgeStyle;elbow=horizontal;endArrow=classic;html=1;curved=0;rounded=0;endSize=8;startSize=8;" edge="1" parent="1">
          <mxGeometry width="50" height="50" relative="1" as="geometry">
            <mxPoint x="560" y="390" as="sourcePoint" />
            <mxPoint x="610" y="340" as="targetPoint" />
          </mxGeometry>
        </mxCell>
        <mxCell id="S0s6AWKBej9ATl0rAqp6-65" value="" style="edgeStyle=elbowEdgeStyle;elbow=horizontal;endArrow=classic;html=1;curved=0;rounded=0;endSize=8;startSize=8;" edge="1" parent="1">
          <mxGeometry width="50" height="50" relative="1" as="geometry">
            <mxPoint x="560" y="420" as="sourcePoint" />
            <mxPoint x="610" y="370" as="targetPoint" />
          </mxGeometry>
        </mxCell>
        <mxCell id="S0s6AWKBej9ATl0rAqp6-66" value="" style="edgeStyle=elbowEdgeStyle;elbow=horizontal;endArrow=classic;html=1;curved=0;rounded=0;endSize=8;startSize=8;" edge="1" parent="1">
          <mxGeometry width="50" height="50" relative="1" as="geometry">
            <mxPoint x="560" y="455" as="sourcePoint" />
            <mxPoint x="610" y="405" as="targetPoint" />
          </mxGeometry>
        </mxCell>
        <mxCell id="S0s6AWKBej9ATl0rAqp6-67" value="" style="edgeStyle=elbowEdgeStyle;elbow=horizontal;endArrow=classic;html=1;curved=0;rounded=0;endSize=8;startSize=8;" edge="1" parent="1">
          <mxGeometry width="50" height="50" relative="1" as="geometry">
            <mxPoint x="560" y="490" as="sourcePoint" />
            <mxPoint x="610" y="440" as="targetPoint" />
          </mxGeometry>
        </mxCell>
        <mxCell id="S0s6AWKBej9ATl0rAqp6-68" value="" style="line;strokeWidth=2;html=1;" vertex="1" parent="1">
          <mxGeometry x="400" y="260" width="60" height="10" as="geometry" />
        </mxCell>
        <mxCell id="S0s6AWKBej9ATl0rAqp6-69" value="" style="line;strokeWidth=2;direction=south;html=1;" vertex="1" parent="1">
          <mxGeometry x="550" y="120" width="10" height="370" as="geometry" />
        </mxCell>
        <mxCell id="S0s6AWKBej9ATl0rAqp6-70" value="" style="line;strokeWidth=2;html=1;" vertex="1" parent="1">
          <mxGeometry x="490" y="260" width="60" height="10" as="geometry" />
        </mxCell>
        <mxCell id="S0s6AWKBej9ATl0rAqp6-71" value="" style="line;strokeWidth=2;html=1;" vertex="1" parent="1">
          <mxGeometry x="410" y="672.5" width="70" height="10" as="geometry" />
        </mxCell>
        <mxCell id="S0s6AWKBej9ATl0rAqp6-72" value="" style="edgeStyle=elbowEdgeStyle;elbow=horizontal;endArrow=classic;html=1;curved=0;rounded=0;endSize=8;startSize=8;" edge="1" parent="1">
          <mxGeometry width="50" height="50" relative="1" as="geometry">
            <mxPoint x="560" y="950" as="sourcePoint" />
            <mxPoint x="610" y="900" as="targetPoint" />
          </mxGeometry>
        </mxCell>
        <mxCell id="S0s6AWKBej9ATl0rAqp6-73" value="" style="edgeStyle=elbowEdgeStyle;elbow=horizontal;endArrow=classic;html=1;curved=0;rounded=0;endSize=8;startSize=8;" edge="1" parent="1">
          <mxGeometry width="50" height="50" relative="1" as="geometry">
            <mxPoint x="560" y="980" as="sourcePoint" />
            <mxPoint x="610" y="930" as="targetPoint" />
          </mxGeometry>
        </mxCell>
        <mxCell id="S0s6AWKBej9ATl0rAqp6-74" value="" style="line;strokeWidth=2;html=1;" vertex="1" parent="1">
          <mxGeometry x="510" y="945" width="50" height="10" as="geometry" />
        </mxCell>
        <mxCell id="S0s6AWKBej9ATl0rAqp6-75" value="" style="line;strokeWidth=2;html=1;" vertex="1" parent="1">
          <mxGeometry x="420" y="950" width="60" height="10" as="geometry" />
        </mxCell>
        <mxCell id="S0s6AWKBej9ATl0rAqp6-78" value="" style="shape=curlyBracket;whiteSpace=wrap;html=1;rounded=1;labelPosition=left;verticalLabelPosition=middle;align=right;verticalAlign=middle;" vertex="1" parent="1">
          <mxGeometry x="780" y="220" width="20" height="120" as="geometry" />
        </mxCell>
        <mxCell id="S0s6AWKBej9ATl0rAqp6-79" value="" style="shape=curlyBracket;whiteSpace=wrap;html=1;rounded=1;flipH=1;labelPosition=right;verticalLabelPosition=middle;align=left;verticalAlign=middle;" vertex="1" parent="1">
          <mxGeometry x="837" y="220" width="20" height="120" as="geometry" />
        </mxCell>
        <mxCell id="S0s6AWKBej9ATl0rAqp6-80" value="Generate&lt;br&gt;UUID" style="text;strokeColor=none;align=center;fillColor=none;html=1;verticalAlign=middle;whiteSpace=wrap;rounded=0;" vertex="1" parent="1">
          <mxGeometry x="790" y="260" width="60" height="30" as="geometry" />
        </mxCell>
        <mxCell id="S0s6AWKBej9ATl0rAqp6-82" value="" style="edgeStyle=elbowEdgeStyle;elbow=horizontal;endArrow=classic;html=1;curved=0;rounded=0;endSize=8;startSize=8;exitX=1;exitY=0.5;exitDx=0;exitDy=0;entryX=0.277;entryY=0.503;entryDx=0;entryDy=0;entryPerimeter=0;" edge="1" parent="1" source="S0s6AWKBej9ATl0rAqp6-32" target="S0s6AWKBej9ATl0rAqp6-78">
          <mxGeometry width="50" height="50" relative="1" as="geometry">
            <mxPoint x="720" y="320" as="sourcePoint" />
            <mxPoint x="760" y="270" as="targetPoint" />
          </mxGeometry>
        </mxCell>
        <mxCell id="S0s6AWKBej9ATl0rAqp6-87" value="" style="shape=curlyBracket;whiteSpace=wrap;html=1;rounded=1;labelPosition=left;verticalLabelPosition=middle;align=right;verticalAlign=middle;" vertex="1" parent="1">
          <mxGeometry x="780" y="572.5" width="20" height="120" as="geometry" />
        </mxCell>
        <mxCell id="S0s6AWKBej9ATl0rAqp6-88" value="" style="shape=curlyBracket;whiteSpace=wrap;html=1;rounded=1;flipH=1;labelPosition=right;verticalLabelPosition=middle;align=left;verticalAlign=middle;" vertex="1" parent="1">
          <mxGeometry x="837" y="572.5" width="20" height="120" as="geometry" />
        </mxCell>
        <mxCell id="S0s6AWKBej9ATl0rAqp6-89" value="Generate&lt;br&gt;UUID" style="text;strokeColor=none;align=center;fillColor=none;html=1;verticalAlign=middle;whiteSpace=wrap;rounded=0;" vertex="1" parent="1">
          <mxGeometry x="790" y="612.5" width="60" height="30" as="geometry" />
        </mxCell>
        <mxCell id="S0s6AWKBej9ATl0rAqp6-90" value="" style="edgeStyle=elbowEdgeStyle;elbow=horizontal;endArrow=classic;html=1;curved=0;rounded=0;endSize=8;startSize=8;exitX=1;exitY=0.5;exitDx=0;exitDy=0;entryX=0.277;entryY=0.503;entryDx=0;entryDy=0;entryPerimeter=0;" edge="1" parent="1" target="S0s6AWKBej9ATl0rAqp6-87">
          <mxGeometry width="50" height="50" relative="1" as="geometry">
            <mxPoint x="740" y="662.5" as="sourcePoint" />
            <mxPoint x="760" y="622.5" as="targetPoint" />
          </mxGeometry>
        </mxCell>
        <mxCell id="S0s6AWKBej9ATl0rAqp6-91" value="&lt;b&gt;&lt;font style=&quot;font-size: 13px;&quot;&gt;&lt;u&gt;Documents&lt;/u&gt;&lt;/font&gt;&lt;/b&gt;&lt;span style=&quot;color: rgba(0, 0, 0, 0); font-family: monospace; font-size: 0px; text-align: start; text-wrap-mode: nowrap;&quot;&gt;%3CmxGraphModel%3E%3Croot%3E%3CmxCell%20id%3D%220%22%2F%3E%3CmxCell%20id%3D%221%22%20parent%3D%220%22%2F%3E%3CmxCell%20id%3D%222%22%20value%3D%22%26lt%3Bb%26gt%3B%26lt%3Bfont%20style%3D%26quot%3Bfont-size%3A%2013px%3B%26quot%3B%26gt%3B%26lt%3Bu%26gt%3BDatabase%26lt%3B%2Fu%26gt%3B%26lt%3B%2Ffont%26gt%3B%26lt%3B%2Fb%26gt%3B%22%20style%3D%22text%3BstrokeColor%3Dnone%3Balign%3Dcenter%3BfillColor%3Dnone%3Bhtml%3D1%3BverticalAlign%3Dmiddle%3BwhiteSpace%3Dwrap%3Brounded%3D0%3B%22%20vertex%3D%221%22%20parent%3D%221%22%3E%3CmxGeometry%20x%3D%2240%22%20y%3D%2290%22%20width%3D%2260%22%20height%3D%2230%22%20as%3D%22geometry%22%2F%3E%3C%2FmxCell%3E%3C%2Froot%3E%3C%2FmxGraphModel%3E&lt;/span&gt;" style="text;strokeColor=none;align=center;fillColor=none;html=1;verticalAlign=middle;whiteSpace=wrap;rounded=0;" vertex="1" parent="1">
          <mxGeometry x="445" y="60" width="60" height="30" as="geometry" />
        </mxCell>
        <mxCell id="S0s6AWKBej9ATl0rAqp6-92" value="&lt;span style=&quot;font-size: 13px;&quot;&gt;&lt;b&gt;&lt;u&gt;Collections&lt;/u&gt;&lt;/b&gt;&lt;/span&gt;" style="text;strokeColor=none;align=center;fillColor=none;html=1;verticalAlign=middle;whiteSpace=wrap;rounded=0;" vertex="1" parent="1">
          <mxGeometry x="310" y="80" width="60" height="30" as="geometry" />
        </mxCell>
        <mxCell id="S0s6AWKBej9ATl0rAqp6-93" value="&lt;span style=&quot;font-size: 13px;&quot;&gt;&lt;b&gt;&lt;u&gt;Fields&lt;/u&gt;&lt;/b&gt;&lt;/span&gt;" style="text;strokeColor=none;align=center;fillColor=none;html=1;verticalAlign=middle;whiteSpace=wrap;rounded=0;" vertex="1" parent="1">
          <mxGeometry x="645" y="10" width="60" height="30" as="geometry" />
        </mxCell>
      </root>
    </mxGraphModel>
  </diagram>
</mxfile>
